<?xml version="1.0" encoding="UTF-8"?>
<svg xmlns="http://www.w3.org/2000/svg" viewBox="0 0 1200 1800" role="img" aria-labelledby="scene-104-title scene-104-desc">
  <title id="scene-104-title">第百二話　残すか、終わらせるか</title>
  <desc id="scene-104-desc">第二十一章　最終確認者と、最後の問い編の第百二話　残すか、終わらせるかをイメージしたビジュアルカード</desc>
  <defs>
    <linearGradient id="bg" x1="0" y1="0" x2="0" y2="1">
      <stop offset="0%" stop-color="#dbe7f4" />
      <stop offset="100%" stop-color="#37506a" />
    </linearGradient>
    <linearGradient id="veil" x1="0" y1="0" x2="0" y2="1">
      <stop offset="0%" stop-color="#ffffff" stop-opacity="0.12" />
      <stop offset="100%" stop-color="#000000" stop-opacity="0.32" />
    </linearGradient>
  </defs>
  <rect width="1200" height="1800" fill="url(#bg)" />
  <rect width="1200" height="1800" fill="url(#veil)" />
  
        <circle cx="910" cy="360" r="170" fill="#eef6ff" opacity="0.18" />
        <circle cx="910" cy="360" r="250" fill="none" stroke="#ebf5ff" stroke-width="18" opacity="0.16" />
        <circle cx="910" cy="360" r="330" fill="none" stroke="#ebf5ff" stroke-width="8" opacity="0.14" />
        <path d="M0 1530 C320 1460 490 1380 760 1410 C950 1440 1080 1510 1200 1490 L1200 1800 L0 1800 Z" fill="#1f3345" opacity="0.26" />
      
  <g opacity="0.08">
    <circle cx="120" cy="120" r="2" fill="#ffffff" />
    <circle cx="240" cy="210" r="1.8" fill="#ffffff" />
    <circle cx="340" cy="180" r="1.6" fill="#ffffff" />
    <circle cx="960" cy="170" r="2" fill="#ffffff" />
    <circle cx="1030" cy="230" r="1.8" fill="#ffffff" />
    <circle cx="870" cy="260" r="1.5" fill="#ffffff" />
  </g>
  <text x="88" y="1290" font-size="28" font-weight="700" letter-spacing="8" fill="#ebf5ff" opacity="0.92" font-family="'Avenir Next', 'Hiragino Sans', sans-serif">第21章</text>
  <text x="88" y="1348" font-size="42" font-weight="500" letter-spacing="2" fill="#ebf5ff" opacity="0.88" font-family="'Yu Mincho', 'Hiragino Mincho ProN', serif"><tspan x="88" dy="0">第二十一章　最終確認者と、最後の</tspan><tspan x="88" dy="44">問い編</tspan></text>
  <text x="88" y="1496" font-size="74" font-weight="700" letter-spacing="2" fill="#ffffff" font-family="'Yu Mincho', 'Hiragino Mincho ProN', serif"><tspan x="88" dy="0">第百二話　残すか、終わらせる</tspan><tspan x="88" dy="88">か</tspan></text>
  <rect x="88" y="1600" width="280" height="2" fill="#ebf5ff" opacity="0.85" />
</svg>