<?xml version="1.0" encoding="UTF-8"?>
<svg xmlns="http://www.w3.org/2000/svg" viewBox="0 0 1200 1800" role="img" aria-labelledby="scene-028-title scene-028-desc">
  <title id="scene-028-title">第二十八話　空の下の記録庫</title>
  <desc id="scene-028-desc">第六章　第七座標の記録庫と、サトーに似た“先代”の影編の第二十八話　空の下の記録庫をイメージしたビジュアルカード</desc>
  <defs>
    <linearGradient id="bg" x1="0" y1="0" x2="0" y2="1">
      <stop offset="0%" stop-color="#f0d7dd" />
      <stop offset="100%" stop-color="#905d73" />
    </linearGradient>
    <linearGradient id="veil" x1="0" y1="0" x2="0" y2="1">
      <stop offset="0%" stop-color="#ffffff" stop-opacity="0.12" />
      <stop offset="100%" stop-color="#000000" stop-opacity="0.32" />
    </linearGradient>
  </defs>
  <rect width="1200" height="1800" fill="url(#bg)" />
  <rect width="1200" height="1800" fill="url(#veil)" />
  
        <rect x="-120" y="960" width="780" height="640" rx="90" fill="#623648" opacity="0.18" transform="rotate(-12 220 1270)" />
        <rect x="560" y="1080" width="620" height="540" rx="80" fill="#fdeff2" opacity="0.12" transform="rotate(9 870 1350)" />
        <circle cx="940" cy="350" r="160" fill="#fff3f6" opacity="0.18" />
      
  <g opacity="0.08">
    <circle cx="120" cy="120" r="2" fill="#ffffff" />
    <circle cx="240" cy="210" r="1.8" fill="#ffffff" />
    <circle cx="340" cy="180" r="1.6" fill="#ffffff" />
    <circle cx="960" cy="170" r="2" fill="#ffffff" />
    <circle cx="1030" cy="230" r="1.8" fill="#ffffff" />
    <circle cx="870" cy="260" r="1.5" fill="#ffffff" />
  </g>
  <text x="88" y="1290" font-size="28" font-weight="700" letter-spacing="8" fill="#fdeff2" opacity="0.92" font-family="'Avenir Next', 'Hiragino Sans', sans-serif">第6章</text>
  <text x="88" y="1348" font-size="42" font-weight="500" letter-spacing="2" fill="#fdeff2" opacity="0.88" font-family="'Yu Mincho', 'Hiragino Mincho ProN', serif"><tspan x="88" dy="0">第六章　第七座標の記録庫と、サト</tspan><tspan x="88" dy="44">ーに似た“先代”の影編</tspan></text>
  <text x="88" y="1496" font-size="74" font-weight="700" letter-spacing="2" fill="#ffffff" font-family="'Yu Mincho', 'Hiragino Mincho ProN', serif"><tspan x="88" dy="0">第二十八話　空の下の記録庫</tspan></text>
  <rect x="88" y="1600" width="280" height="2" fill="#fdeff2" opacity="0.85" />
</svg>