<?xml version="1.0" encoding="UTF-8"?>
<svg xmlns="http://www.w3.org/2000/svg" viewBox="0 0 1200 1800" role="img" aria-labelledby="scene-101-title scene-101-desc">
  <title id="scene-101-title">第九十九話　中央座標の番兵</title>
  <desc id="scene-101-desc">第二十章　地下水路の拾い屋たちと、中央座標の番兵編の第九十九話　中央座標の番兵をイメージしたビジュアルカード</desc>
  <defs>
    <linearGradient id="bg" x1="0" y1="0" x2="0" y2="1">
      <stop offset="0%" stop-color="#f0d7dd" />
      <stop offset="100%" stop-color="#905d73" />
    </linearGradient>
    <linearGradient id="veil" x1="0" y1="0" x2="0" y2="1">
      <stop offset="0%" stop-color="#ffffff" stop-opacity="0.12" />
      <stop offset="100%" stop-color="#000000" stop-opacity="0.32" />
    </linearGradient>
  </defs>
  <rect width="1200" height="1800" fill="url(#bg)" />
  <rect width="1200" height="1800" fill="url(#veil)" />
  
        <circle cx="940" cy="320" r="180" fill="#fff3f6" opacity="0.18" />
        <path d="M0 1330 C210 1240 350 1220 540 1270 C770 1330 970 1510 1200 1470 L1200 1800 L0 1800 Z" fill="#623648" opacity="0.34" />
        <path d="M0 1460 C280 1370 520 1380 760 1480 C960 1560 1090 1630 1200 1600 L1200 1800 L0 1800 Z" fill="#fdeff2" opacity="0.16" />
      
  <g opacity="0.08">
    <circle cx="120" cy="120" r="2" fill="#ffffff" />
    <circle cx="240" cy="210" r="1.8" fill="#ffffff" />
    <circle cx="340" cy="180" r="1.6" fill="#ffffff" />
    <circle cx="960" cy="170" r="2" fill="#ffffff" />
    <circle cx="1030" cy="230" r="1.8" fill="#ffffff" />
    <circle cx="870" cy="260" r="1.5" fill="#ffffff" />
  </g>
  <text x="88" y="1290" font-size="28" font-weight="700" letter-spacing="8" fill="#fdeff2" opacity="0.92" font-family="'Avenir Next', 'Hiragino Sans', sans-serif">第20章</text>
  <text x="88" y="1348" font-size="42" font-weight="500" letter-spacing="2" fill="#fdeff2" opacity="0.88" font-family="'Yu Mincho', 'Hiragino Mincho ProN', serif"><tspan x="88" dy="0">第二十章　地下水路の拾い屋たちと</tspan><tspan x="88" dy="44">、中央座標の番兵編</tspan></text>
  <text x="88" y="1496" font-size="74" font-weight="700" letter-spacing="2" fill="#ffffff" font-family="'Yu Mincho', 'Hiragino Mincho ProN', serif"><tspan x="88" dy="0">第九十九話　中央座標の番兵</tspan></text>
  <rect x="88" y="1600" width="280" height="2" fill="#fdeff2" opacity="0.85" />
</svg>