<?xml version="1.0" encoding="UTF-8"?>
<svg xmlns="http://www.w3.org/2000/svg" viewBox="0 0 1200 1800" role="img" aria-labelledby="scene-009-title scene-009-desc">
  <title id="scene-009-title">第九話　宝箱よりも気になるもの</title>
  <desc id="scene-009-desc">第二章　森のダンジョンと、もふもふの予感の第九話　宝箱よりも気になるものをイメージしたビジュアルカード</desc>
  <defs>
    <linearGradient id="bg" x1="0" y1="0" x2="0" y2="1">
      <stop offset="0%" stop-color="#d9efd9" />
      <stop offset="100%" stop-color="#6f8f63" />
    </linearGradient>
    <linearGradient id="veil" x1="0" y1="0" x2="0" y2="1">
      <stop offset="0%" stop-color="#ffffff" stop-opacity="0.12" />
      <stop offset="100%" stop-color="#000000" stop-opacity="0.32" />
    </linearGradient>
  </defs>
  <rect width="1200" height="1800" fill="url(#bg)" />
  <rect width="1200" height="1800" fill="url(#veil)" />
  
        <circle cx="910" cy="360" r="170" fill="#f2fff2" opacity="0.18" />
        <circle cx="910" cy="360" r="250" fill="none" stroke="#eff9eb" stroke-width="18" opacity="0.16" />
        <circle cx="910" cy="360" r="330" fill="none" stroke="#eff9eb" stroke-width="8" opacity="0.14" />
        <path d="M0 1530 C320 1460 490 1380 760 1410 C950 1440 1080 1510 1200 1490 L1200 1800 L0 1800 Z" fill="#2b4c34" opacity="0.26" />
      
  <g opacity="0.08">
    <circle cx="120" cy="120" r="2" fill="#ffffff" />
    <circle cx="240" cy="210" r="1.8" fill="#ffffff" />
    <circle cx="340" cy="180" r="1.6" fill="#ffffff" />
    <circle cx="960" cy="170" r="2" fill="#ffffff" />
    <circle cx="1030" cy="230" r="1.8" fill="#ffffff" />
    <circle cx="870" cy="260" r="1.5" fill="#ffffff" />
  </g>
  <text x="88" y="1290" font-size="28" font-weight="700" letter-spacing="8" fill="#eff9eb" opacity="0.92" font-family="'Avenir Next', 'Hiragino Sans', sans-serif">第2章</text>
  <text x="88" y="1348" font-size="42" font-weight="500" letter-spacing="2" fill="#eff9eb" opacity="0.88" font-family="'Yu Mincho', 'Hiragino Mincho ProN', serif"><tspan x="88" dy="0">第二章　森のダンジョンと、もふも</tspan><tspan x="88" dy="44">ふの予感</tspan></text>
  <text x="88" y="1496" font-size="74" font-weight="700" letter-spacing="2" fill="#ffffff" font-family="'Yu Mincho', 'Hiragino Mincho ProN', serif"><tspan x="88" dy="0">第九話　宝箱よりも気になるも</tspan><tspan x="88" dy="88">の</tspan></text>
  <rect x="88" y="1600" width="280" height="2" fill="#eff9eb" opacity="0.85" />
</svg>