<?xml version="1.0" encoding="UTF-8"?>
<svg xmlns="http://www.w3.org/2000/svg" viewBox="0 0 1200 1800" role="img" aria-labelledby="scene-035-title scene-035-desc">
  <title id="scene-035-title">第三十五話　選ぶのは自分たちだ</title>
  <desc id="scene-035-desc">第七章　青の記録――世界の構造と、王都が隠していること編の第三十五話　選ぶのは自分たちだをイメージしたビジュアルカード</desc>
  <defs>
    <linearGradient id="bg" x1="0" y1="0" x2="0" y2="1">
      <stop offset="0%" stop-color="#dbe7f4" />
      <stop offset="100%" stop-color="#37506a" />
    </linearGradient>
    <linearGradient id="veil" x1="0" y1="0" x2="0" y2="1">
      <stop offset="0%" stop-color="#ffffff" stop-opacity="0.12" />
      <stop offset="100%" stop-color="#000000" stop-opacity="0.32" />
    </linearGradient>
  </defs>
  <rect width="1200" height="1800" fill="url(#bg)" />
  <rect width="1200" height="1800" fill="url(#veil)" />
  
        <circle cx="930" cy="300" r="170" fill="#eef6ff" opacity="0.19" />
        <path d="M180 1120 L340 900 L520 1090" stroke="#ebf5ff" stroke-width="22" stroke-linecap="round" opacity="0.18" fill="none" />
        <path d="M430 1250 L630 980 L860 1260" stroke="#ebf5ff" stroke-width="18" stroke-linecap="round" opacity="0.16" fill="none" />
        <path d="M740 1150 L920 930 L1080 1130" stroke="#ebf5ff" stroke-width="14" stroke-linecap="round" opacity="0.16" fill="none" />
        <path d="M0 1500 C280 1400 540 1420 780 1510 C980 1580 1100 1600 1200 1570 L1200 1800 L0 1800 Z" fill="#1f3345" opacity="0.24" />
      
  <g opacity="0.08">
    <circle cx="120" cy="120" r="2" fill="#ffffff" />
    <circle cx="240" cy="210" r="1.8" fill="#ffffff" />
    <circle cx="340" cy="180" r="1.6" fill="#ffffff" />
    <circle cx="960" cy="170" r="2" fill="#ffffff" />
    <circle cx="1030" cy="230" r="1.8" fill="#ffffff" />
    <circle cx="870" cy="260" r="1.5" fill="#ffffff" />
  </g>
  <text x="88" y="1290" font-size="28" font-weight="700" letter-spacing="8" fill="#ebf5ff" opacity="0.92" font-family="'Avenir Next', 'Hiragino Sans', sans-serif">第7章</text>
  <text x="88" y="1348" font-size="42" font-weight="500" letter-spacing="2" fill="#ebf5ff" opacity="0.88" font-family="'Yu Mincho', 'Hiragino Mincho ProN', serif"><tspan x="88" dy="0">第七章　青の記録――世界の構造と</tspan><tspan x="88" dy="44">、王都が隠していること編</tspan></text>
  <text x="88" y="1496" font-size="74" font-weight="700" letter-spacing="2" fill="#ffffff" font-family="'Yu Mincho', 'Hiragino Mincho ProN', serif"><tspan x="88" dy="0">第三十五話　選ぶのは自分たち</tspan><tspan x="88" dy="88">だ</tspan></text>
  <rect x="88" y="1600" width="280" height="2" fill="#ebf5ff" opacity="0.85" />
</svg>