<?xml version="1.0" encoding="UTF-8"?>
<svg xmlns="http://www.w3.org/2000/svg" viewBox="0 0 1200 1800" role="img" aria-labelledby="scene-049-title scene-049-desc">
  <title id="scene-049-title">第四十九話　地下鐘堂</title>
  <desc id="scene-049-desc">第十章　灰鐘院防衛戦と、地下鐘堂の記憶編の第四十九話　地下鐘堂をイメージしたビジュアルカード</desc>
  <defs>
    <linearGradient id="bg" x1="0" y1="0" x2="0" y2="1">
      <stop offset="0%" stop-color="#e4e1f5" />
      <stop offset="100%" stop-color="#867ea6" />
    </linearGradient>
    <linearGradient id="veil" x1="0" y1="0" x2="0" y2="1">
      <stop offset="0%" stop-color="#ffffff" stop-opacity="0.12" />
      <stop offset="100%" stop-color="#000000" stop-opacity="0.32" />
    </linearGradient>
  </defs>
  <rect width="1200" height="1800" fill="url(#bg)" />
  <rect width="1200" height="1800" fill="url(#veil)" />
  
        <circle cx="910" cy="360" r="170" fill="#fbfaff" opacity="0.18" />
        <circle cx="910" cy="360" r="250" fill="none" stroke="#f3f0ff" stroke-width="18" opacity="0.16" />
        <circle cx="910" cy="360" r="330" fill="none" stroke="#f3f0ff" stroke-width="8" opacity="0.14" />
        <path d="M0 1530 C320 1460 490 1380 760 1410 C950 1440 1080 1510 1200 1490 L1200 1800 L0 1800 Z" fill="#3f3657" opacity="0.26" />
      
  <g opacity="0.08">
    <circle cx="120" cy="120" r="2" fill="#ffffff" />
    <circle cx="240" cy="210" r="1.8" fill="#ffffff" />
    <circle cx="340" cy="180" r="1.6" fill="#ffffff" />
    <circle cx="960" cy="170" r="2" fill="#ffffff" />
    <circle cx="1030" cy="230" r="1.8" fill="#ffffff" />
    <circle cx="870" cy="260" r="1.5" fill="#ffffff" />
  </g>
  <text x="88" y="1290" font-size="28" font-weight="700" letter-spacing="8" fill="#f3f0ff" opacity="0.92" font-family="'Avenir Next', 'Hiragino Sans', sans-serif">第10章</text>
  <text x="88" y="1348" font-size="42" font-weight="500" letter-spacing="2" fill="#f3f0ff" opacity="0.88" font-family="'Yu Mincho', 'Hiragino Mincho ProN', serif"><tspan x="88" dy="0">第十章　灰鐘院防衛戦と、地下鐘堂</tspan><tspan x="88" dy="44">の記憶編</tspan></text>
  <text x="88" y="1496" font-size="74" font-weight="700" letter-spacing="2" fill="#ffffff" font-family="'Yu Mincho', 'Hiragino Mincho ProN', serif"><tspan x="88" dy="0">第四十九話　地下鐘堂</tspan></text>
  <rect x="88" y="1600" width="280" height="2" fill="#f3f0ff" opacity="0.85" />
</svg>