<?xml version="1.0" encoding="UTF-8"?>
<svg xmlns="http://www.w3.org/2000/svg" viewBox="0 0 1200 1800" role="img" aria-labelledby="scene-016-title scene-016-desc">
  <title id="scene-016-title">第十六話　静かな村に持ち帰ったもの</title>
  <desc id="scene-016-desc">第四章　村長への報告と、王都からの使者編の第十六話　静かな村に持ち帰ったものをイメージしたビジュアルカード</desc>
  <defs>
    <linearGradient id="bg" x1="0" y1="0" x2="0" y2="1">
      <stop offset="0%" stop-color="#d7ecf7" />
      <stop offset="100%" stop-color="#4e8aa6" />
    </linearGradient>
    <linearGradient id="veil" x1="0" y1="0" x2="0" y2="1">
      <stop offset="0%" stop-color="#ffffff" stop-opacity="0.12" />
      <stop offset="100%" stop-color="#000000" stop-opacity="0.32" />
    </linearGradient>
  </defs>
  <rect width="1200" height="1800" fill="url(#bg)" />
  <rect width="1200" height="1800" fill="url(#veil)" />
  
        <circle cx="940" cy="320" r="180" fill="#edfaff" opacity="0.18" />
        <path d="M0 1330 C210 1240 350 1220 540 1270 C770 1330 970 1510 1200 1470 L1200 1800 L0 1800 Z" fill="#24556c" opacity="0.34" />
        <path d="M0 1460 C280 1370 520 1380 760 1480 C960 1560 1090 1630 1200 1600 L1200 1800 L0 1800 Z" fill="#e8f7ff" opacity="0.16" />
      
  <g opacity="0.08">
    <circle cx="120" cy="120" r="2" fill="#ffffff" />
    <circle cx="240" cy="210" r="1.8" fill="#ffffff" />
    <circle cx="340" cy="180" r="1.6" fill="#ffffff" />
    <circle cx="960" cy="170" r="2" fill="#ffffff" />
    <circle cx="1030" cy="230" r="1.8" fill="#ffffff" />
    <circle cx="870" cy="260" r="1.5" fill="#ffffff" />
  </g>
  <text x="88" y="1290" font-size="28" font-weight="700" letter-spacing="8" fill="#e8f7ff" opacity="0.92" font-family="'Avenir Next', 'Hiragino Sans', sans-serif">第4章</text>
  <text x="88" y="1348" font-size="42" font-weight="500" letter-spacing="2" fill="#e8f7ff" opacity="0.88" font-family="'Yu Mincho', 'Hiragino Mincho ProN', serif"><tspan x="88" dy="0">第四章　村長への報告と、王都から</tspan><tspan x="88" dy="44">の使者編</tspan></text>
  <text x="88" y="1496" font-size="74" font-weight="700" letter-spacing="2" fill="#ffffff" font-family="'Yu Mincho', 'Hiragino Mincho ProN', serif"><tspan x="88" dy="0">第十六話　静かな村に持ち帰っ</tspan><tspan x="88" dy="88">たもの</tspan></text>
  <rect x="88" y="1600" width="280" height="2" fill="#e8f7ff" opacity="0.85" />
</svg>